<?xml version="1.0" encoding="UTF-8" standalone="no"?>
<!-- Created with Inkscape (http://www.inkscape.org/) -->

<svg
   xmlns:dc="http://purl.org/dc/elements/1.1/"
   xmlns:cc="http://creativecommons.org/ns#"
   xmlns:rdf="http://www.w3.org/1999/02/22-rdf-syntax-ns#"
   xmlns:svg="http://www.w3.org/2000/svg"
   xmlns="http://www.w3.org/2000/svg"
   xmlns:sodipodi="http://sodipodi.sourceforge.net/DTD/sodipodi-0.dtd"
   xmlns:inkscape="http://www.inkscape.org/namespaces/inkscape"
   width="870.2179"
   height="800"
   id="svg2"
   version="1.1"
   inkscape:version="0.48.0 r9654"
   sodipodi:docname="Сова разочарована.svg">
  <defs
     id="defs4" />
  <sodipodi:namedview
     id="base"
     pagecolor="#ffffff"
     bordercolor="#666666"
     borderopacity="1.0"
     inkscape:pageopacity="0.0"
     inkscape:pageshadow="2"
     inkscape:zoom="0.35"
     inkscape:cx="330.06909"
     inkscape:cy="518.85558"
     inkscape:document-units="px"
     inkscape:current-layer="layer1"
     showgrid="false"
     inkscape:snap-bbox="true"
     inkscape:bbox-paths="true"
     inkscape:bbox-nodes="true"
     inkscape:snap-bbox-edge-midpoints="true"
     inkscape:snap-bbox-midpoints="true"
     inkscape:object-paths="true"
     inkscape:snap-intersection-paths="true"
     inkscape:object-nodes="true"
     inkscape:snap-smooth-nodes="false"
     inkscape:snap-midpoints="false"
     inkscape:snap-global="false"
     fit-margin-top="0"
     fit-margin-left="0"
     fit-margin-right="0"
     fit-margin-bottom="0"
     inkscape:window-width="1280"
     inkscape:window-height="911"
     inkscape:window-x="-4"
     inkscape:window-y="-4"
     inkscape:window-maximized="1" />
  <metadata
     id="metadata7">
    <rdf:RDF>
      <cc:Work
         rdf:about="">
        <dc:format>image/svg+xml</dc:format>
        <dc:type
           rdf:resource="http://purl.org/dc/dcmitype/StillImage" />
        <dc:title></dc:title>
      </cc:Work>
    </rdf:RDF>
  </metadata>
  <g
     inkscape:label="Layer 1"
     inkscape:groupmode="layer"
     id="layer1"
     transform="translate(12.112618,-143.79075)">
    <g
       id="g3892"
       transform="matrix(1.1306995,0,0,1.1306995,1.5831128,-123.35296)">
      <path
         id="path3888"
         d="m 69.4375,289.46875 c -8.075614,0.26984 -15.923585,2.7052 -23.5625,7.53125 -90.661185,57.2772 -75.375847,360.24358 48.40625,471.0625 64.75068,51.99733 177.15625,52.875 177.15625,52.875 L 220,435.21875 C 163.06851,349.42806 113.04582,288.01162 69.4375,289.46875 z m 623,62.53125 c -21.48135,0.17773 -48.51905,7.34894 -81.46875,23.15625 C 550.94596,403.95162 496.65625,480 496.65625,480 l -114.5,366 C 700.68205,746.74021 854.26364,350.66109 692.4375,352 z"
         style="fill:#9d7f5a;fill-opacity:1;stroke:none"
         inkscape:connector-curvature="0" />
      <rect
         ry="0"
         rx="0"
         y="400.93362"
         x="170"
         height="124.28571"
         width="360"
         id="rect3872"
         style="fill:#000000;fill-opacity:1;stroke:none" />
      <path
         transform="matrix(0.99441464,0.10554395,-0.10554395,0.99441464,39.942458,-32.329232)"
         d="m 499.28571,459.50504 c 0,21.89414 -17.74871,39.64285 -39.64286,39.64285 -21.89414,0 -39.64285,-17.74871 -39.64285,-39.64285 0,-21.89415 17.74871,-39.64286 39.64285,-39.64286 21.89415,0 39.64286,17.74871 39.64286,39.64286 z"
         sodipodi:ry="39.642857"
         sodipodi:rx="39.642857"
         sodipodi:cy="459.50504"
         sodipodi:cx="459.64285"
         id="path3071"
         style="fill:#bc3f05;fill-opacity:1;stroke:none"
         sodipodi:type="arc" />
      <path
         transform="matrix(0.99441464,0.10554395,-0.10554395,0.99441464,39.942458,-32.329232)"
         d="m 290.00001,453.07648 c 0,23.86659 -19.3477,43.21428 -43.21429,43.21428 -23.86659,0 -43.21429,-19.34769 -43.21429,-43.21428 0,-23.86659 19.3477,-43.21429 43.21429,-43.21429 23.86659,0 43.21429,19.3477 43.21429,43.21429 z"
         sodipodi:ry="43.214287"
         sodipodi:rx="43.214287"
         sodipodi:cy="453.07648"
         sodipodi:cx="246.78572"
         id="path3073"
         style="fill:#bc3f05;fill-opacity:1;stroke:none"
         sodipodi:type="arc" />
      <path
         transform="matrix(0.49920414,0.05298391,-0.05298391,0.49920414,138.33962,205.01006)"
         sodipodi:type="arc"
         style="fill:#000000;stroke:none"
         id="path3075"
         sodipodi:cx="246.78572"
         sodipodi:cy="453.07648"
         sodipodi:rx="43.214287"
         sodipodi:ry="43.214287"
         d="m 290.00001,453.07648 c 0,23.86659 -19.3477,43.21428 -43.21429,43.21428 -23.86659,0 -43.21429,-19.34769 -43.21429,-43.21428 0,-23.86659 19.3477,-43.21429 43.21429,-43.21429 23.86659,0 43.21429,19.3477 43.21429,43.21429 z" />
      <path
         d="m 290.00001,453.07648 c 0,23.86659 -19.3477,43.21428 -43.21429,43.21428 -23.86659,0 -43.21429,-19.34769 -43.21429,-43.21428 0,-23.86659 19.3477,-43.21429 43.21429,-43.21429 23.86659,0 43.21429,19.3477 43.21429,43.21429 z"
         sodipodi:ry="43.214287"
         sodipodi:rx="43.214287"
         sodipodi:cy="453.07648"
         sodipodi:cx="246.78572"
         id="path3077"
         style="fill:#000000;stroke:none"
         sodipodi:type="arc"
         transform="matrix(0.49920414,0.05298391,-0.05298391,0.49920414,350.07737,233.58875)" />
      <path
         sodipodi:nodetypes="cccccscccccccscccscc"
         inkscape:connector-curvature="0"
         id="path3878"
         d="m 148.1389,236.26411 c -4.00944,30.37993 8.4259,82.03453 10.4236,110.98589 -142.414424,122.85399 -68.036209,264.69643 -74.28125,407.96875 -3.135396,37.45185 -52.84375,105 -52.84375,105 l 648.55357,0 c 0,0 -111.50064,-87.74074 -91.49251,-127.14263 40.12467,-79.01726 59.88987,-270.53115 6.71147,-321.17779 19.07241,-30.46285 5.81561,-30.54606 13.40625,-100.95378 -27.41822,36.35423 -33.607,40.51972 -73.10548,54.59779 C 461.20022,343.39012 316.55427,292.53213 245.375,305.65625 217.89482,286.33909 222.75546,287.47372 148.1389,236.26411 z M 207.59375,407.75 c 9.75914,29.57608 39.81472,44.03789 64.61802,61.09137 -27.99,21.07791 -49.52606,25.72966 -69.64927,11.03363 -11.89501,-8.68694 -26.83737,-32.11356 -12.40625,-56.125 6.26463,-12.18545 11.59767,-15.9992 17.4375,-16 z m 288.5,47.46875 c 6.70395,19.52992 7.83109,45.85897 -19.9375,58.8125 -24.10931,11.24657 -59.46971,-5.31873 -74.375,-26.6875 21.07455,-8.86744 79.46512,-71.50918 94.3125,-32.125 z"
         style="fill:#cdad85;fill-opacity:1;stroke:none" />
      <path
         sodipodi:nodetypes="ccc"
         inkscape:connector-curvature="0"
         id="path3064"
         d="m 324.49954,617.30879 c 14.96689,-35.0063 78.88778,-132.87127 18.21411,-144.06712 -57.9151,3.07893 -28.45195,114.46161 -18.21411,144.06712 z"
         style="fill:#000000;stroke:none" />
      <path
         sodipodi:nodetypes="cccccc"
         inkscape:connector-curvature="0"
         id="path3882"
         d="m 164.28571,932.36218 c -56.63897,-55.78547 -28.66746,-113.31562 8.57143,-101.42857 -16.25061,-45.80339 40.68193,-24.2753 70,-4.28571 91.79481,-56.42887 18.53103,73.17889 -4.28571,117.14285 -8.03764,-91.31552 -21.98823,-121.8136 -32.85715,-31.42857 -35.16195,-77.59296 -23.43763,-73.55285 -41.42857,20 z"
         style="fill:#9d7f5a;fill-opacity:1;stroke:none" />
      <path
         sodipodi:nodetypes="cccccc"
         style="fill:#9d7f5a;fill-opacity:1;stroke:none"
         d="m 535.7143,925.21932 c 56.63897,-55.78547 35.81032,-136.17276 -21.42857,-102.85714 -25.17796,-28.66053 -27.82479,-22.84673 -57.14286,-2.85714 -91.79481,-56.42887 -49.9596,68.17889 -27.14286,112.14285 -2.73395,-81.5698 27.65302,-74.11576 55.71429,0.71429 35.16195,-77.59296 32.00906,-100.69571 50,-7.14286 z"
         id="path3884"
         inkscape:connector-curvature="0" />
    </g>
  </g>
</svg>
